<?xml version="1.0" encoding="utf-8" standalone="no"?>
<!DOCTYPE svg PUBLIC "-//W3C//DTD SVG 1.1//EN"
  "http://www.w3.org/Graphics/SVG/1.1/DTD/svg11.dtd">
<svg xmlns:xlink="http://www.w3.org/1999/xlink" width="439.2pt" height="185.690323pt" viewBox="0 0 439.2 185.690323" xmlns="http://www.w3.org/2000/svg" version="1.1">
 <metadata>
  <rdf:RDF xmlns:dc="http://purl.org/dc/elements/1.1/" xmlns:cc="http://creativecommons.org/ns#" xmlns:rdf="http://www.w3.org/1999/02/22-rdf-syntax-ns#">
   <cc:Work>
    <dc:type rdf:resource="http://purl.org/dc/dcmitype/StillImage"/>
    <dc:date>2026-10-03T11:58:30.924716</dc:date>
    <dc:format>image/svg+xml</dc:format>
    <dc:creator>
     <cc:Agent>
      <dc:title>Matplotlib v3.10.8, https://matplotlib.org/</dc:title>
     </cc:Agent>
    </dc:creator>
   </cc:Work>
  </rdf:RDF>
 </metadata>
 <defs>
  <style type="text/css">*{stroke-linejoin: round; stroke-linecap: butt}</style>
 </defs>
 <g id="figure_1">
  <g id="patch_1">
   <path d="M 0 185.690323 
L 439.2 185.690323 
L 439.2 0 
L 0 0 
z
" style="fill: #ffffff"/>
  </g>
  <g id="axes_1">
   <g id="patch_2">
    <path d="M 62.644871 151.083871 
Q 109.976812 151.083871 155.072685 151.083871 
" clip-path="url(#p3761092f53)" style="fill: none; stroke: #176b91; stroke-width: 2; stroke-linecap: round"/>
    <path d="M 148.672685 147.883871 
L 155.072685 151.083871 
L 148.672685 154.283871 
z
" clip-path="url(#p3761092f53)" style="fill: #176b91; stroke: #176b91; stroke-width: 2; stroke-linecap: round"/>
   </g>
   <g id="patch_3">
    <path d="M 167.884876 133.054611 
Q 144.232175 92.845021 121.713207 54.562774 
" clip-path="url(#p3761092f53)" style="fill: none; stroke: #176b91; stroke-width: 2; stroke-linecap: round"/>
    <path d="M 122.199946 61.701617 
L 121.713207 54.562774 
L 127.716325 58.456689 
z
" clip-path="url(#p3761092f53)" style="fill: #176b91; stroke: #176b91; stroke-width: 2; stroke-linecap: round"/>
   </g>
   <g id="patch_4">
    <path d="M 99.368747 52.635712 
Q 75.716046 92.845302 53.197078 131.127549 
" clip-path="url(#p3761092f53)" style="fill: none; stroke: #176b91; stroke-width: 2; stroke-linecap: round"/>
    <path d="M 59.200196 127.233634 
L 53.197078 131.127549 
L 53.683817 123.988705 
z
" clip-path="url(#p3761092f53)" style="fill: #176b91; stroke: #176b91; stroke-width: 2; stroke-linecap: round"/>
   </g>
   <g id="PathCollection_1">
    <defs>
     <path id="mf0cdcd0822" d="M 0 10.606602 
C 2.812904 10.606602 5.510977 9.489023 7.5 7.5 
C 9.489023 5.510977 10.606602 2.812904 10.606602 0 
C 10.606602 -2.812904 9.489023 -5.510977 7.5 -7.5 
C 5.510977 -9.489023 2.812904 -10.606602 0 -10.606602 
C -2.812904 -10.606602 -5.510977 -9.489023 -7.5 -7.5 
C -9.489023 -5.510977 -10.606602 -2.812904 -10.606602 0 
C -10.606602 2.812904 -9.489023 5.510977 -7.5 7.5 
C -5.510977 9.489023 -2.812904 10.606602 0 10.606602 
z
" style="stroke: #506272"/>
    </defs>
    <g clip-path="url(#p3761092f53)">
     <use xlink:href="#mf0cdcd0822" x="41.458065" y="151.083871" style="fill: #e7eff3; stroke: #506272"/>
    </g>
   </g>
   <g id="PathCollection_2">
    <g clip-path="url(#p3761092f53)">
     <use xlink:href="#mf0cdcd0822" x="178.490323" y="151.083871" style="fill: #e7eff3; stroke: #506272"/>
    </g>
   </g>
   <g id="PathCollection_3">
    <g clip-path="url(#p3761092f53)">
     <use xlink:href="#mf0cdcd0822" x="109.974194" y="34.606452" style="fill: #e7eff3; stroke: #506272"/>
    </g>
   </g>
   <g id="text_1">
    <text style="font-size: 10px; font-family: 'DejaVu Sans'; text-anchor: middle" x="41.458065" y="153.843246" transform="rotate(-0 41.458065 153.843246)">0</text>
   </g>
   <g id="text_2">
    <text style="font-size: 10px; font-family: 'DejaVu Sans'; text-anchor: middle" x="178.490323" y="153.843246" transform="rotate(-0 178.490323 153.843246)">1</text>
   </g>
   <g id="text_3">
    <text style="font-size: 10px; font-family: 'DejaVu Sans'; text-anchor: middle" x="109.974194" y="37.365827" transform="rotate(-0 109.974194 37.365827)">2</text>
   </g>
   <g id="text_4">
    <text style="font-size: 10px; font-family: 'DejaVu Sans'; text-anchor: start; fill: #506272" x="247.006452" y="65.43871" transform="rotate(-0 247.006452 65.43871)">Before  (3, 0, 0)</text>
   </g>
   <g id="text_5">
    <text style="font-size: 10px; font-family: 'DejaVu Sans'; text-anchor: start; fill: #176b91" x="247.006452" y="99.696774" transform="rotate(-0 247.006452 99.696774)">After    (1, 1, 1)</text>
   </g>
   <g id="text_6">
    <text style="font-size: 10px; font-family: 'DejaVu Sans'" transform="translate(247.006452 129.608639)">A cycle can retain</text>
    <text style="font-size: 10px; font-family: 'DejaVu Sans'" transform="translate(247.006452 140.806452)">zero-divergence flow</text>
   </g>
  </g>
 </g>
 <defs>
  <clipPath id="p3761092f53">
   <rect x="7.2" y="7.2" width="424.8" height="171.290323"/>
  </clipPath>
 </defs>
</svg>
